<?xml version="1.0" encoding="utf-8"?>
<!-- Generator: Adobe Illustrator 16.0.0, SVG Export Plug-In . SVG Version: 6.00 Build 0)  -->
<!DOCTYPE svg PUBLIC "-//W3C//DTD SVG 1.1//EN" "http://www.w3.org/Graphics/SVG/1.1/DTD/svg11.dtd">
<svg version="1.1" id="Layer_1" xmlns="http://www.w3.org/2000/svg" xmlns:xlink="http://www.w3.org/1999/xlink" x="0px" y="0px"
	 width="631.504px" height="199.063px" viewBox="0 0 631.504 199.063" enable-background="new 0 0 631.504 199.063"
	 xml:space="preserve">
<g>
	<path fill="#CE4419" d="M30.436,40.764c-3.173,0-5.92-1.156-8.231-3.472c-2.316-2.312-3.472-5.058-3.472-8.232
		c0-3.304,1.156-6.05,3.472-8.232c2.312-2.182,5.058-3.273,8.231-3.273c3.305,0,6.082,1.091,8.332,3.273
		c2.247,2.182,3.372,4.928,3.372,8.232c0,3.174-1.159,5.92-3.471,8.232C36.354,39.608,33.611,40.764,30.436,40.764z"/>
	<path fill="#8C2F12" d="M172.015,2.479c-1.72-1.717-4.04-2.579-6.55-2.579c-2.381,0-4.801,0.862-6.518,2.579
		C157.227,4.199,156,6.248,156,8.628v53.56c-4,2.004-17.544,7.485-40.517,7.485c-20.266,0-33.761-4.859-37.361-7.517
		C78.203,62.119,78.326,62,78.326,62H78V8.628c0-2.38-0.575-4.429-2.292-6.149C73.988,0.762,72.083-0.1,69.703-0.1
		c-2.515,0-4.52,0.862-6.236,2.579C61.746,4.199,61,6.248,61,8.628v139.058c0,2.38,0.818,4.433,2.538,6.148
		c1.717,1.718,3.815,2.579,6.328,2.579c2.38,0,4.132-0.861,5.853-2.579c1.717-1.716,2.281-3.769,2.281-6.148V80.703l0,0
		c0,2.408,18.46,7.26,37.022,7.26c20.925,0,35.978-4.852,40.978-7.26l0,0v66.984c0,2.38,1.126,4.433,2.846,6.148
		c1.717,1.718,3.902,2.579,6.283,2.579c2.511,0,5.1-0.861,6.82-2.579c1.717-1.716,3.051-3.769,3.051-6.148V8.628
		C175,6.248,173.733,4.199,172.015,2.479z"/>
	<path fill="#8C2F12" d="M226.924,156.018c-5.424,0-10.547-1.026-15.374-3.075c-4.829-2.048-9.026-4.859-12.596-8.431
		c-3.571-3.57-6.382-7.767-8.431-12.597c-2.052-4.825-3.075-9.949-3.075-15.374V63.974c0-2.511,0.859-4.628,2.579-6.348
		c1.717-1.717,3.834-2.579,6.348-2.579c2.381,0,4.429,0.862,6.149,2.579c1.718,1.72,2.579,3.837,2.579,6.348v52.567
		c0,3.044,0.561,5.887,1.686,8.53c1.122,2.647,2.678,4.959,4.662,6.943c1.983,1.983,4.296,3.54,6.943,4.662
		c2.644,1.125,5.486,1.686,8.53,1.686c2.907,0,5.684-0.561,8.331-1.686c2.645-1.122,4.959-2.679,6.943-4.662
		c1.984-1.984,3.571-4.296,4.761-6.943c1.19-2.644,1.786-5.486,1.786-8.53V63.974c0-2.511,0.858-4.628,2.579-6.348
		c1.717-1.717,3.768-2.579,6.149-2.579c2.38,0,4.429,0.862,6.149,2.579c1.717,1.72,2.579,3.837,2.579,6.348v52.567
		c0,5.425-1.026,10.549-3.075,15.374c-2.052,4.83-4.86,9.026-8.431,12.597c-3.571,3.571-7.736,6.383-12.498,8.431
		C237.438,154.991,232.345,156.018,226.924,156.018z"/>
	<path fill="#8C2F12" d="M299.468,60.205c6.214-3.967,12.894-5.951,20.036-5.951c5.024,0,9.785,0.961,14.282,2.876
		c4.495,1.919,8.431,4.563,11.804,7.935c3.371,3.373,6.016,7.309,7.935,11.803c1.914,4.498,2.875,9.258,2.875,14.283v56.536
		c0,2.38-0.86,4.433-2.578,6.148c-1.72,1.718-3.769,2.579-6.149,2.579c-2.514,0-4.631-0.861-6.348-2.579
		c-1.721-1.716-2.579-3.769-2.579-6.148V91.15c0-2.644-0.495-5.124-1.486-7.439c-0.992-2.313-2.382-4.364-4.168-6.149
		c-1.784-1.786-3.836-3.174-6.148-4.166c-2.315-0.992-4.795-1.488-7.438-1.488c-2.646,0-5.158,0.496-7.538,1.488
		c-2.381,0.992-4.433,2.38-6.15,4.166c-1.72,1.786-3.074,3.837-4.065,6.149c-0.992,2.315-1.488,4.795-1.488,7.439
		c0,0.397-0.134,0.992-0.397,1.785v54.751c0,2.38-0.861,4.433-2.579,6.148c-1.72,1.718-3.769,2.579-6.149,2.579
		c-2.514,0-4.631-0.861-6.348-2.579c-1.72-1.716-2.579-3.769-2.579-6.148V61.792c0-2.511,0.858-4.628,2.579-6.349
		c1.717-1.717,3.834-2.578,6.348-2.578C295.897,52.865,298.675,55.314,299.468,60.205z"/>
	<path fill="#CE4419" d="M382.615,158.133c1.851,0,3.305,0.396,4.363,1.191c1.057,0.793,2.049,1.716,2.976,2.776
		c0.264,0.526,0.596,1.022,0.992,1.487c0.397,0.463,0.726,0.959,0.992,1.488l1.784,2.38c3.042,3.571,6.812,6.349,11.309,8.333
		c4.494,1.983,9.126,2.976,13.886,2.976c4.494,0,8.792-0.894,12.895-2.679c4.097-1.785,7.638-4.2,10.613-7.24
		c2.976-3.044,5.354-6.581,7.141-10.613c0.383-0.865,0.717-1.747,1.016-2.64c-0.174,0.186-0.358,0.354-0.529,0.549
		c-0.264,0.527-0.595,1.022-0.991,1.488c-0.398,0.462-0.727,0.958-0.992,1.487l-1.785,2.38c-3.041,3.571-6.811,6.35-11.308,8.333
		c-4.494,1.983-9.126,2.976-13.886,2.976c-4.761,0-9.392-0.992-13.887-2.976c-4.496-1.983-8.267-4.762-11.308-8.333l-1.785-2.38
		c-0.266-0.529-0.594-1.025-0.991-1.487c-0.396-0.466-0.729-0.961-0.992-1.488c-0.928-1.061-1.919-1.983-2.976-2.776
		c-1.06-0.795-2.514-1.191-4.364-1.191c-2.515,0-4.63,0.893-6.348,2.679c-1.72,1.785-2.579,3.868-2.579,6.248
		c0,0.054,0.012,0.104,0.014,0.155c0.129-0.148,0.254-0.3,0.394-0.444C377.985,159.025,380.101,158.133,382.615,158.133z"/>
	<path fill="#8C2F12" d="M418.917,199.063c-4.365,0-8.696-0.563-12.993-1.687c-4.3-1.123-8.4-2.776-12.299-4.959
		c-3.903-2.18-7.473-4.828-10.712-7.935c-3.242-3.107-5.92-6.579-8.035-10.415c-0.266-0.661-0.529-1.355-0.793-2.082
		c-0.266-0.728-0.396-1.487-0.396-2.28c0-2.382,0.858-4.464,2.579-6.248c1.718-1.787,3.833-2.679,6.348-2.679
		c1.851,0,3.305,0.396,4.363,1.19c1.057,0.793,2.049,1.716,2.976,2.777c0.264,0.526,0.596,1.022,0.992,1.487
		c0.397,0.463,0.726,0.958,0.992,1.488l1.784,2.379c3.042,3.572,6.812,6.349,11.309,8.332c4.494,1.983,9.126,2.976,13.886,2.976
		c4.494,0,8.792-0.894,12.895-2.679c4.097-1.784,7.638-4.199,10.613-7.239c2.976-3.043,5.354-6.582,7.141-10.613
		c1.786-4.035,2.677-8.361,2.677-12.993v-4.166c-4.63,4.102-9.787,7.24-15.472,9.423c-5.688,2.183-11.639,3.272-17.854,3.272
		c-7.012,0-13.622-1.355-19.837-4.065c-6.217-2.71-11.639-6.38-16.268-11.011c-4.63-4.626-8.299-10.048-11.008-16.266
		c-2.713-6.214-4.067-12.826-4.067-19.837c0-7.008,1.354-13.588,4.067-19.738c2.709-6.149,6.378-11.537,11.008-16.167
		c4.629-4.627,10.051-8.297,16.268-11.009c6.215-2.709,12.825-4.067,19.837-4.067c6.215,0,12.166,1.091,17.854,3.273
		c5.685,2.182,10.842,5.257,15.472,9.225v-3.77c0-2.381,0.86-4.429,2.58-6.149c1.717-1.717,3.834-2.579,6.347-2.579
		c2.382,0,4.43,0.862,6.15,2.579c1.718,1.72,2.577,3.769,2.577,6.149v84.902c0,7.008-1.355,13.62-4.065,19.838
		c-2.712,6.214-6.382,11.636-11.009,16.265c-4.631,4.629-10.019,8.299-16.168,11.011
		C432.506,197.708,425.925,199.063,418.917,199.063z M418.917,71.909c-4.631,0-8.96,0.893-12.993,2.678
		c-4.036,1.786-7.572,4.166-10.612,7.142c-3.045,2.975-5.455,6.515-7.241,10.612c-1.786,4.101-2.678,8.4-2.678,12.895
		c0,4.632,0.892,8.961,2.678,12.992c1.786,4.037,4.196,7.573,7.241,10.613c3.04,3.043,6.576,5.456,10.612,7.24
		c4.033,1.785,8.362,2.679,12.993,2.679c4.494,0,8.792-0.894,12.895-2.679c4.097-1.784,7.638-4.197,10.613-7.24
		c2.976-3.04,5.354-6.576,7.141-10.613c1.786-4.031,2.677-8.36,2.677-12.992c0-4.494-0.891-8.793-2.677-12.895
		c-1.786-4.097-4.165-7.637-7.141-10.612c-2.976-2.976-6.517-5.356-10.613-7.142C427.709,72.802,423.411,71.909,418.917,71.909z"/>
	<path fill="#8C2F12" d="M497.094,60.006c2.114-1.851,4.464-3.273,7.043-4.265c2.578-0.992,5.188-1.488,7.835-1.488
		c6.478,0,11.804,1.587,15.969,4.761c4.167,3.174,7.371,7.736,9.622,13.688c0.526,1.323,0.725,2.712,0.595,4.166
		c-0.134,1.457-0.564,2.777-1.29,3.968c-0.729,1.19-1.72,2.151-2.976,2.876c-1.258,0.729-2.745,1.091-4.463,1.091
		c-1.457,0-2.746-0.329-3.868-0.992c-1.125-0.66-2.083-1.453-2.876-2.38c-0.664-0.793-1.225-1.618-1.687-2.48
		c-0.465-0.858-0.961-1.751-1.488-2.678c-0.926-1.454-1.952-2.644-3.075-3.57c-1.124-0.924-3.009-1.255-5.652-0.992
		c-1.721,0.133-3.372,0.663-4.959,1.586c-1.588,0.927-2.976,2.052-4.167,3.373c-1.189,1.323-2.15,2.811-2.876,4.463
		c-0.729,1.655-1.091,3.341-1.091,5.058v61.496c0,2.38-0.861,4.433-2.579,6.148c-1.721,1.718-3.769,2.579-6.148,2.579
		c-2.515,0-4.632-0.861-6.348-2.579c-1.721-1.716-2.579-3.769-2.579-6.148V62.982c0-2.381,0.858-4.429,2.579-6.149
		c1.716-1.718,3.833-2.579,6.348-2.579c1.851,0,3.502,0.53,4.959,1.587C495.374,56.9,496.432,58.29,497.094,60.006z"/>
	<path fill="#8C2F12" d="M630.711,66.354l-33.129,82.125l-17.258,42.054c-0.662,1.718-1.721,3.075-3.173,4.067
		c-1.457,0.991-3.11,1.487-4.96,1.487c-2.381,0-4.432-0.861-6.149-2.579c-1.721-1.72-2.579-3.769-2.579-6.148
		c0-1.19,0.198-2.315,0.595-3.373l15.87-38.88l-31.739-78.753c-0.396-0.923-0.596-2.049-0.596-3.372
		c0-2.381,0.859-4.429,2.579-6.149c1.718-1.718,3.769-2.579,6.15-2.579c1.85,0,3.536,0.496,5.058,1.488
		c1.519,0.992,2.609,2.349,3.273,4.067l24.796,63.478l24.994-63.478c0.661-1.718,1.718-3.075,3.175-4.067
		c1.454-0.992,3.105-1.488,4.959-1.488c2.511,0,4.628,0.861,6.348,2.579c1.718,1.72,2.579,3.769,2.579,6.149
		C631.504,64.305,631.238,65.431,630.711,66.354z"/>
	<path fill="#CE4419" d="M37.046,57.625c-1.72-1.717-3.956-2.579-6.336-2.579c-2.381,0-4.924,0.862-6.641,2.579
		C22.349,59.346,21,61.463,21,63.974v52.567c0,3.044-0.198,5.887-1.389,8.53c-1.189,2.647-1.181,3.589-4.562,6.943l-7.006,4.632
		c-0.56,0.194-1.045,0.455-1.556,0.788c-0.513,0.331-1.023,0.596-1.581,0.786c-1.173,0.78-2.207,1.642-3.132,2.585
		c-0.927,0.943-1.505,2.333-1.749,4.169c-0.332,2.492,0.277,4.706,1.821,6.645C3.388,153.56,5.34,154.687,7.7,155
		c0.787,0.104,1.559,0.075,2.315-0.093c0.753-0.166,1.477-0.335,2.169-0.512c1.975-0.77,3.879-1.689,5.72-2.743
		c3.662-1.892,6.956-4.255,9.84-7.141c3.571-3.57,6.753-7.767,8.805-12.597c2.049-4.825,3.45-9.949,3.45-15.374V63.974
		C40,61.463,38.764,59.346,37.046,57.625z"/>
	<path fill="#8C2F12" d="M15.247,143.237"/>
</g>
</svg>
